<svg width="24" height="24" viewBox="0 0 24 24" fill="none" xmlns="http://www.w3.org/2000/svg">
<rect x="0.5" y="0.5" width="23" height="23" rx="11.5" fill="white"/>
<path d="M11.6218 17.14C10.9311 17.14 10.2544 17.042 9.59178 16.846C8.93845 16.6407 8.38778 16.3607 7.93978 16.006L8.72378 14.592C9.07845 14.8813 9.50778 15.1147 10.0118 15.292C10.5158 15.4693 11.0431 15.558 11.5938 15.558C12.2471 15.558 12.7558 15.4273 13.1198 15.166C13.4838 14.8953 13.6658 14.5313 13.6658 14.074C13.6658 13.626 13.4978 13.2713 13.1618 13.01C12.8258 12.7487 12.2844 12.618 11.5378 12.618H10.6418V11.372L13.4418 8.04L13.6798 8.726H8.41578V7.2H15.0938V8.418L12.2938 11.75L11.3418 11.19H11.8878C13.0918 11.19 13.9924 11.4607 14.5898 12.002C15.1964 12.534 15.4998 13.22 15.4998 14.06C15.4998 14.6107 15.3598 15.1193 15.0798 15.586C14.7998 16.0527 14.3704 16.4307 13.7918 16.72C13.2224 17 12.4991 17.14 11.6218 17.14Z" fill="black"/>
<rect x="0.5" y="0.5" width="23" height="23" rx="11.5" stroke="black"/>
</svg>
