<svg xmlns="http://www.w3.org/2000/svg" width="410" viewBox="0 0 1227.121 257.137" height="115" xmlns:v="https://vecta.io/nano">
    <path d="M189.963 72.23v184.907h-23.835V217.41c-15.167 24.2-40.809 39.727-72.951 39.727C42.255 257.137 0 215.966 0 162.516S42.255 67.9 93.177 67.9c32.142 0 57.784 15.529 72.951 39.726V72.23zm-23.835 90.286c0-40.087-31.058-71.507-71.146-71.507s-71.145 31.42-71.145 71.507 31.058 71.507 71.145 71.507 71.146-31.423 71.146-71.507zm88.56-90.286h23.835v184.907h-23.835zm166.03-2.89v23.114c-28.892 0-57.062 15.168-57.062 59.95v104.733h-23.835V72.23h23.835v29.975c12.641-25.28 33.947-32.865 57.062-32.865zm131.002 0v23.114c-28.893 0-57.062 15.168-57.062 59.95v104.733h-23.835V72.23h23.835v29.975c12.64-25.28 33.945-32.865 57.062-32.865zm21.572 93.176c0-53.449 42.255-94.62 94.982-94.62s94.981 41.171 94.981 94.62-42.253 94.621-94.981 94.621-94.982-41.171-94.982-94.621zm166.128 0c0-40.087-31.058-71.507-71.146-71.507s-71.145 31.42-71.145 71.507 31.058 71.507 71.145 71.507 71.146-31.423 71.146-71.507zm264.256 0c0 53.45-42.255 94.621-93.176 94.621-32.142 0-57.783-15.53-72.952-39.727v39.727h-23.835V0h23.835v107.622c15.169-24.197 40.81-39.722 72.955-39.722 50.918 0 93.173 41.167 93.173 94.616zm-23.835 0c0-40.087-31.06-71.507-71.146-71.507s-71.147 31.42-71.147 71.507 31.06 71.507 71.147 71.507 71.146-31.423 71.146-71.507zm247.28.723c0 3.611-.36 7.584-.721 11.2h-158.544c5.056 36.837 33.587 59.589 71.868 59.589 28.53 0 48.393-13.362 58.145-30.7l20.946 12.279c-15.167 24.558-42.976 41.532-79.452 41.532-57.061 0-96.065-40.088-96.065-94.621 0-53.088 38.282-94.62 94.26-94.62 55.255.002 89.563 45.864 89.563 95.341zm-159.265-11.918h134.708c-5.057-39.726-33.948-60.312-65.006-60.312-37.92 0-65.008 24.92-69.702 60.312z"></path>
</svg>
