<svg width="24" height="24" viewBox="0 0 24 24" fill="none" xmlns="http://www.w3.org/2000/svg">
<rect x="0.5" y="0.5" width="23" height="23" rx="11.5" fill="white"/>
<path d="M8.41578 17V15.782L12.3078 12.086C12.6344 11.778 12.8771 11.5073 13.0358 11.274C13.1944 11.0407 13.2971 10.826 13.3438 10.63C13.3998 10.4247 13.4278 10.2333 13.4278 10.056C13.4278 9.608 13.2738 9.26267 12.9658 9.02C12.6578 8.768 12.2051 8.642 11.6078 8.642C11.1318 8.642 10.6978 8.726 10.3058 8.894C9.92311 9.062 9.59178 9.31867 9.31178 9.664L8.03778 8.684C8.42045 8.17067 8.93378 7.774 9.57778 7.494C10.2311 7.20467 10.9591 7.06 11.7618 7.06C12.4711 7.06 13.0871 7.17667 13.6098 7.41C14.1418 7.634 14.5478 7.956 14.8278 8.376C15.1171 8.796 15.2618 9.29533 15.2618 9.874C15.2618 10.1913 15.2198 10.5087 15.1358 10.826C15.0518 11.134 14.8931 11.4607 14.6598 11.806C14.4264 12.1513 14.0858 12.5387 13.6378 12.968L10.2918 16.146L9.91378 15.46H15.6398V17H8.41578Z" fill="black"/>
<rect x="0.5" y="0.5" width="23" height="23" rx="11.5" stroke="black"/>
</svg>
