<svg xmlns="http://www.w3.org/2000/svg" width="16" height="16" fill="none" xmlns:v="https://vecta.io/nano"><path d="M5.087 9.615l-.3-.4-.8.6.3.4.8-.6zm6 .6l.3-.4-.8-.6-.3.4.8.6zm-3.4 4.7a6.5 6.5 0 0 1-6.5-6.5h-1a7.5 7.5 0 0 0 7.5 7.5v-1zm6.5-6.5a6.5 6.5 0 0 1-6.5 6.5v1a7.5 7.5 0 0 0 7.5-7.5h-1zm-6.5-6.5a6.5 6.5 0 0 1 6.5 6.5h1a7.5 7.5 0 0 0-7.5-7.5v1zm0-1a7.5 7.5 0 0 0-7.5 7.5h1a6.5 6.5 0 0 1 6.5-6.5v-1zm-3.5 6h1v-1h-1v1zm6 0h1v-1h-1v1zm.1 2.7a3.25 3.25 0 0 1-5.2 0l-.8.6c1.7 2.267 5.1 2.267 6.8 0l-.8-.6z" fill="#000"></path></svg>
